<svg width="16" height="16" viewBox="0 0 16 16" fill="none" xmlns="http://www.w3.org/2000/svg">
<g clip-path="url(#clip0_1184_304)">
<path d="M5 4.25V1.25V4.25ZM11 4.25V1.25V4.25ZM4.25 7.25H11.75H4.25ZM2.75 14.75H13.25C13.6478 14.75 14.0294 14.592 14.3107 14.3107C14.592 14.0294 14.75 13.6478 14.75 13.25V4.25C14.75 3.85218 14.592 3.47064 14.3107 3.18934C14.0294 2.90804 13.6478 2.75 13.25 2.75H2.75C2.35218 2.75 1.97064 2.90804 1.68934 3.18934C1.40804 3.47064 1.25 3.85218 1.25 4.25V13.25C1.25 13.6478 1.40804 14.0294 1.68934 14.3107C1.97064 14.592 2.35218 14.75 2.75 14.75Z" stroke="#66768F" stroke-width="1.5" stroke-linecap="round" stroke-linejoin="round"/>
</g>
<defs>
<clipPath id="clip0_1184_304">
<rect width="16" height="16" fill="white"/>
</clipPath>
</defs>
</svg>
