<svg width="14" height="12" viewBox="0 0 14 12" fill="none" xmlns="http://www.w3.org/2000/svg">
<path d="M1 3.3335L6.26 6.84016C6.47911 6.98635 6.7366 7.06436 7 7.06436C7.2634 7.06436 7.52089 6.98635 7.74 6.84016L13 3.3335H1ZM2.33333 10.6668H11.6667C12.0203 10.6668 12.3594 10.5264 12.6095 10.2763C12.8595 10.0263 13 9.68712 13 9.3335V2.66683C13 2.31321 12.8595 1.97407 12.6095 1.72402C12.3594 1.47397 12.0203 1.3335 11.6667 1.3335H2.33333C1.97971 1.3335 1.64057 1.47397 1.39052 1.72402C1.14048 1.97407 1 2.31321 1 2.66683V9.3335C1 9.68712 1.14048 10.0263 1.39052 10.2763C1.64057 10.5264 1.97971 10.6668 2.33333 10.6668Z" stroke="#94A9C9" stroke-width="1.33333" stroke-linecap="round" stroke-linejoin="round"/>
</svg>
