<svg width="10" height="10" viewBox="0 0 10 10" fill="none" xmlns="http://www.w3.org/2000/svg">
<path d="M3.3186 4.73552L4.24808 5.66885L6.11089 3.80219" stroke="#B8CDEB" stroke-width="0.867769" stroke-linecap="round" stroke-linejoin="round"/>
<path d="M4.23259 1.05231C4.49871 0.824766 4.93452 0.824766 5.20449 1.05231L5.81386 1.57683C5.92956 1.67711 6.14554 1.7581 6.29981 1.7581H6.95545C7.36427 1.7581 7.69981 2.09364 7.69981 2.50245V3.1581C7.69981 3.30851 7.7808 3.52835 7.88107 3.64405L8.40559 4.25342C8.63314 4.51953 8.63314 4.95534 8.40559 5.22532L7.88107 5.83468C7.7808 5.95039 7.69981 6.16636 7.69981 6.32063V6.97628C7.69981 7.3851 7.36427 7.72063 6.95545 7.72063H6.29981C6.14939 7.72063 5.92956 7.80162 5.81386 7.9019L5.20449 8.42642C4.93838 8.65397 4.50256 8.65397 4.23259 8.42642L3.62322 7.9019C3.50752 7.80162 3.29154 7.72063 3.13727 7.72063H2.47006C2.06124 7.72063 1.7257 7.3851 1.7257 6.97628V6.31678C1.7257 6.16636 1.64471 5.95039 1.54829 5.83468L1.02763 5.22146C0.80394 4.95534 0.80394 4.52339 1.02763 4.25727L1.54829 3.64405C1.64471 3.52835 1.7257 3.31237 1.7257 3.16196V2.49859C1.7257 2.08978 2.06124 1.75424 2.47006 1.75424H3.13727C3.28769 1.75424 3.50752 1.67325 3.62322 1.57298L4.23259 1.05231Z" stroke="#B8CDEB" stroke-width="0.867769" stroke-linecap="round" stroke-linejoin="round"/>
</svg>
