<svg width="20" height="20" viewBox="0 0 20 20" fill="none" xmlns="http://www.w3.org/2000/svg">
<g clip-path="url(#clip0_1129_3102)">
<path fill-rule="evenodd" clip-rule="evenodd" d="M6.21953 0.888496C7.19703 0.843496 7.5087 0.833496 9.9987 0.833496C12.4887 0.833496 12.8004 0.844329 13.777 0.888496C14.7537 0.932663 15.4204 1.0885 16.0037 1.31433C16.6145 1.54516 17.1687 1.906 17.627 2.37266C18.0937 2.83016 18.4537 3.3835 18.6837 3.99516C18.9104 4.5785 19.0654 5.24516 19.1104 6.22016C19.1554 7.19933 19.1654 7.511 19.1654 10.0002C19.1654 12.4902 19.1545 12.8018 19.1104 13.7793C19.0662 14.7543 18.9104 15.421 18.6837 16.0043C18.4537 16.6161 18.0931 17.1703 17.627 17.6285C17.1687 18.0952 16.6145 18.4552 16.0037 18.6852C15.4204 18.9118 14.7537 19.0668 13.7787 19.1118C12.8004 19.1568 12.4887 19.1668 9.9987 19.1668C7.5087 19.1668 7.19703 19.156 6.21953 19.1118C5.24453 19.0677 4.57786 18.9118 3.99453 18.6852C3.3828 18.4551 2.82855 18.0945 2.37036 17.6285C1.90401 17.1707 1.54313 16.6167 1.31286 16.0052C1.08703 15.4218 0.932031 14.7552 0.887031 13.7802C0.842031 12.801 0.832031 12.4893 0.832031 10.0002C0.832031 7.51016 0.842865 7.1985 0.887031 6.22183C0.931198 5.24516 1.08703 4.5785 1.31286 3.99516C1.54347 3.38356 1.90463 2.82959 2.3712 2.37183C2.82873 1.90558 3.38242 1.5447 3.9937 1.31433C4.57703 1.0885 5.2437 0.933496 6.2187 0.888496H6.21953ZM13.7029 2.5385C12.7362 2.49433 12.4462 2.48516 9.9987 2.48516C7.5512 2.48516 7.2612 2.49433 6.29453 2.5385C5.40036 2.57933 4.91536 2.7285 4.59203 2.85433C4.16453 3.021 3.8587 3.2185 3.53786 3.53933C3.23374 3.83521 2.99968 4.1954 2.85286 4.5935C2.72703 4.91683 2.57786 5.40183 2.53703 6.296C2.49286 7.26266 2.4837 7.55266 2.4837 10.0002C2.4837 12.4477 2.49286 12.7377 2.53703 13.7043C2.57786 14.5985 2.72703 15.0835 2.85286 15.4068C2.99953 15.8043 3.2337 16.1652 3.53786 16.461C3.8337 16.7652 4.19453 16.9993 4.59203 17.146C4.91536 17.2718 5.40036 17.421 6.29453 17.4618C7.2612 17.506 7.55036 17.5152 9.9987 17.5152C12.447 17.5152 12.7362 17.506 13.7029 17.4618C14.597 17.421 15.082 17.2718 15.4054 17.146C15.8329 16.9793 16.1387 16.7818 16.4595 16.461C16.7637 16.1652 16.9979 15.8043 17.1445 15.4068C17.2704 15.0835 17.4195 14.5985 17.4604 13.7043C17.5045 12.7377 17.5137 12.4477 17.5137 10.0002C17.5137 7.55266 17.5045 7.26266 17.4604 6.296C17.4195 5.40183 17.2704 4.91683 17.1445 4.5935C16.9779 4.166 16.7804 3.86016 16.4595 3.53933C16.1636 3.23522 15.8034 3.00117 15.4054 2.85433C15.082 2.7285 14.597 2.57933 13.7029 2.5385V2.5385ZM8.82786 12.826C9.48175 13.0982 10.2098 13.1349 10.8878 12.9299C11.5658 12.7249 12.1515 12.2909 12.545 11.702C12.9386 11.1131 13.1154 10.4059 13.0454 9.70108C12.9754 8.99628 12.6629 8.33764 12.1612 7.83766C11.8414 7.51806 11.4547 7.27334 11.029 7.12112C10.6032 6.9689 10.1491 6.91296 9.69911 6.95734C9.24917 7.00172 8.81466 7.14531 8.42687 7.37777C8.03908 7.61023 7.70765 7.92578 7.45645 8.3017C7.20525 8.67763 7.04052 9.10457 6.97413 9.5518C6.90773 9.99902 6.94132 10.4554 7.07248 10.8881C7.20364 11.3208 7.4291 11.719 7.73263 12.0541C8.03616 12.3892 8.41022 12.6528 8.82786 12.826ZM6.66703 6.6685C7.10455 6.23097 7.62396 5.88391 8.19561 5.64713C8.76726 5.41035 9.37995 5.28847 9.9987 5.28847C10.6174 5.28847 11.2301 5.41035 11.8018 5.64713C12.3734 5.88391 12.8928 6.23097 13.3304 6.6685C13.7679 7.10602 14.1149 7.62543 14.3517 8.19708C14.5885 8.76873 14.7104 9.38141 14.7104 10.0002C14.7104 10.6189 14.5885 11.2316 14.3517 11.8032C14.1149 12.3749 13.7679 12.8943 13.3304 13.3318C12.4468 14.2154 11.2483 14.7118 9.9987 14.7118C8.74908 14.7118 7.55064 14.2154 6.66703 13.3318C5.78342 12.4482 5.28701 11.2498 5.28701 10.0002C5.28701 8.75054 5.78342 7.55211 6.66703 6.6685V6.6685ZM15.7554 5.99016C15.8638 5.88789 15.9506 5.7649 16.0106 5.62847C16.0707 5.49205 16.1027 5.34497 16.1049 5.19594C16.1071 5.04691 16.0793 4.89895 16.0233 4.76084C15.9672 4.62272 15.8841 4.49725 15.7787 4.39186C15.6733 4.28647 15.5478 4.20329 15.4097 4.14726C15.2716 4.09123 15.1236 4.06348 14.9746 4.06565C14.8256 4.06782 14.6785 4.09987 14.5421 4.15991C14.4056 4.21994 14.2826 4.30674 14.1804 4.41516C13.9815 4.62602 13.8726 4.9061 13.8768 5.19594C13.881 5.48578 13.998 5.76256 14.203 5.96753C14.408 6.1725 14.6847 6.28952 14.9746 6.29374C15.2644 6.29797 15.5445 6.18907 15.7554 5.99016V5.99016Z" fill="url(#paint0_linear_1129_3102)"/>
</g>
<defs>
<linearGradient id="paint0_linear_1129_3102" x1="1.91586" y1="19.1668" x2="21.3889" y2="16.4962" gradientUnits="userSpaceOnUse">
<stop stop-color="#0EA5EA"/>
<stop offset="1" stop-color="#0BD1D1"/>
</linearGradient>
<clipPath id="clip0_1129_3102">
<rect width="20" height="20" fill="white"/>
</clipPath>
</defs>
</svg>
