<svg width="20" height="20" viewBox="0 0 20 20" fill="none" xmlns="http://www.w3.org/2000/svg">
<path fill-rule="evenodd" clip-rule="evenodd" d="M0.832031 2.36516C0.832031 1.95894 0.993403 1.56936 1.28065 1.28211C1.56789 0.99487 1.95747 0.833498 2.3637 0.833498H17.632C17.8333 0.833169 18.0327 0.872551 18.2188 0.949387C18.4049 1.02622 18.574 1.13901 18.7164 1.28128C18.8588 1.42355 18.9718 1.59252 19.0488 1.77851C19.1259 1.96449 19.1655 2.16385 19.1654 2.36516V17.6335C19.1656 17.8348 19.1261 18.0343 19.0492 18.2203C18.9722 18.4064 18.8594 18.5755 18.717 18.7179C18.5747 18.8603 18.4057 18.9733 18.2197 19.0503C18.0336 19.1273 17.8342 19.1669 17.6329 19.1668H2.3637C2.16249 19.1668 1.96325 19.1272 1.77736 19.0502C1.59148 18.9731 1.42259 18.8602 1.28035 18.7179C1.13811 18.5756 1.02531 18.4067 0.948383 18.2207C0.871459 18.0348 0.831922 17.8355 0.832031 17.6343V2.36516ZM8.0887 7.8235H10.5712V9.07016C10.9295 8.3535 11.8462 7.7085 13.2237 7.7085C15.8645 7.7085 16.4904 9.136 16.4904 11.7552V16.6068H13.8179V12.3518C13.8179 10.8602 13.4595 10.0185 12.5495 10.0185C11.287 10.0185 10.762 10.926 10.762 12.3518V16.6068H8.0887V7.8235ZM3.50537 16.4927H6.1787V7.7085H3.50537V16.4918V16.4927ZM6.5612 4.8435C6.56624 5.07239 6.52551 5.29999 6.4414 5.51293C6.35729 5.72587 6.23149 5.91986 6.07139 6.08352C5.91129 6.24719 5.72011 6.37723 5.50908 6.466C5.29804 6.55478 5.0714 6.60051 4.84245 6.60051C4.6135 6.60051 4.38686 6.55478 4.17582 6.466C3.96478 6.37723 3.77361 6.24719 3.61351 6.08352C3.45341 5.91986 3.32761 5.72587 3.2435 5.51293C3.15939 5.29999 3.11866 5.07239 3.1237 4.8435C3.13359 4.39421 3.31902 3.96666 3.64027 3.6524C3.96152 3.33815 4.39305 3.16218 4.84245 3.16218C5.29185 3.16218 5.72338 3.33815 6.04463 3.6524C6.36588 3.96666 6.5513 4.39421 6.5612 4.8435Z" fill="#7F92B0"/>
</svg>
