<svg width="42" height="42" viewBox="0 0 42 42" fill="none" xmlns="http://www.w3.org/2000/svg">
<circle cx="21" cy="21" r="21" fill="#ff265c"/>
<path d="M19.8602 19.8933V25.2733C19.8602 26.5933 18.7802 27.6666 17.4668 27.6666C16.1468 27.6666 15.0735 26.5933 15.0735 25.2733C15.0735 23.96 16.1468 22.8866 17.4668 22.8866C18.0202 22.8866 18.5202 23.08 18.9268 23.3933V20.16L19.8602 19.8933Z" fill="#0EA5EA"/>
<path d="M26.9266 17.88V23.9867C26.9266 25.3067 25.8532 26.38 24.5332 26.38C23.2199 26.38 22.1399 25.3067 22.1399 23.9867C22.1399 22.6733 23.2199 21.6 24.5332 21.6C25.0932 21.6 25.5932 21.7933 25.9999 22.1133V18.1467L26.9266 17.88Z" fill="#0EA5EA"/>
<path opacity="0.4" d="M26.9265 16.4533V17.88L18.9265 20.16V17.5C18.9265 16.52 19.5198 15.76 20.4598 15.5066L24.3132 14.4533C25.0932 14.24 25.7532 14.3133 26.2198 14.6733C26.6932 15.0266 26.9265 15.6266 26.9265 16.4533Z" fill="#0EA5EA"/>
</svg>
