<svg width="42" height="42" viewBox="0 0 42 42" fill="none" xmlns="http://www.w3.org/2000/svg">
<circle cx="21" cy="21" r="21" fill="#ff265c"/>
<path opacity="0.4" d="M21.6667 15.1667H17.6667C15.3867 15.1667 14.5 16.0533 14.5 18.3333V23.6667C14.5 25.2 15.3333 26.8333 17.6667 26.8333H21.6667C23.9467 26.8333 24.8333 25.9467 24.8333 23.6667V18.3333C24.8333 16.0533 23.9467 15.1667 21.6667 15.1667Z" fill="#0EA5EA"/>
<path d="M20.6667 20.5867C21.3589 20.5867 21.9201 20.0255 21.9201 19.3333C21.9201 18.6411 21.3589 18.08 20.6667 18.08C19.9745 18.08 19.4134 18.6411 19.4134 19.3333C19.4134 20.0255 19.9745 20.5867 20.6667 20.5867Z" fill="#0EA5EA"/>
<path d="M27.4333 17.1133C27.16 16.9733 26.5867 16.8133 25.8067 17.36L24.82 18.0533C24.8267 18.1467 24.8333 18.2333 24.8333 18.3333V23.6667C24.8333 23.7667 24.82 23.8533 24.82 23.9467L25.8067 24.64C26.22 24.9333 26.58 25.0267 26.8667 25.0267C27.1133 25.0267 27.3067 24.96 27.4333 24.8933C27.7067 24.7533 28.1667 24.3733 28.1667 23.42V18.5867C28.1667 17.6333 27.7067 17.2533 27.4333 17.1133Z" fill="#0EA5EA"/>
</svg>
