<svg width="16" height="16" viewBox="0 0 16 16" fill="none" xmlns="http://www.w3.org/2000/svg">
<path opacity="0.4" d="M14.6667 5.20665V9.26665L13.58 8.33331C13.06 7.88665 12.22 7.88665 11.7 8.33331L8.92671 10.7133C8.40671 11.16 7.56671 11.16 7.04671 10.7133L6.82004 10.5266C6.34671 10.1133 5.59337 10.0733 5.06004 10.4333L1.78004 12.6333L1.70671 12.6866C1.46004 12.1533 1.33337 11.52 1.33337 10.7933V5.20665C1.33337 2.77998 2.78004 1.33331 5.20671 1.33331H10.7934C13.22 1.33331 14.6667 2.77998 14.6667 5.20665Z" fill="#0EA5EA"/>
<path d="M6.00012 6.91998C6.87641 6.91998 7.58679 6.2096 7.58679 5.33331C7.58679 4.45702 6.87641 3.74664 6.00012 3.74664C5.12383 3.74664 4.41345 4.45702 4.41345 5.33331C4.41345 6.2096 5.12383 6.91998 6.00012 6.91998Z" fill="#0EA5EA"/>
<path d="M14.6667 9.26669V10.7934C14.6667 13.22 13.22 14.6667 10.7933 14.6667H5.20666C3.50666 14.6667 2.28 13.9534 1.70667 12.6867L1.78 12.6334L5.06 10.4334C5.59333 10.0734 6.34666 10.1134 6.82 10.5267L7.04666 10.7134C7.56666 11.16 8.40666 11.16 8.92666 10.7134L11.7 8.33335C12.22 7.88669 13.06 7.88669 13.58 8.33335L14.6667 9.26669Z" fill="#0EA5EA"/>
</svg>
