<svg width="42" height="42" viewBox="0 0 42 42" fill="none" xmlns="http://www.w3.org/2000/svg">
<circle cx="21" cy="21" r="21" fill="#ff265c"/>
<path opacity="0.4" d="M27.6667 18.2066V22.2666L26.58 21.3333C26.06 20.8866 25.22 20.8866 24.7 21.3333L21.9267 23.7133C21.4067 24.16 20.5667 24.16 20.0467 23.7133L19.82 23.5266C19.3467 23.1133 18.5934 23.0733 18.06 23.4333L14.78 25.6333L14.7067 25.6866C14.46 25.1533 14.3334 24.52 14.3334 23.7933V18.2066C14.3334 15.78 15.78 14.3333 18.2067 14.3333H23.7934C26.22 14.3333 27.6667 15.78 27.6667 18.2066Z" fill="#0EA5EA"/>
<path d="M19.0001 19.92C19.8764 19.92 20.5868 19.2096 20.5868 18.3333C20.5868 17.457 19.8764 16.7466 19.0001 16.7466C18.1238 16.7466 17.4135 17.457 17.4135 18.3333C17.4135 19.2096 18.1238 19.92 19.0001 19.92Z" fill="#0EA5EA"/>
<path d="M27.6667 22.2667V23.7934C27.6667 26.22 26.22 27.6667 23.7933 27.6667H18.2067C16.5067 27.6667 15.28 26.9534 14.7067 25.6867L14.78 25.6334L18.06 23.4334C18.5933 23.0734 19.3467 23.1134 19.82 23.5267L20.0467 23.7134C20.5667 24.16 21.4067 24.16 21.9267 23.7134L24.7 21.3334C25.22 20.8867 26.06 20.8867 26.58 21.3334L27.6667 22.2667Z" fill="#0EA5EA"/>
</svg>
