<svg width="12" height="14" viewBox="0 0 12 14" fill="none" xmlns="http://www.w3.org/2000/svg">
<path d="M8.66658 3.66667C8.66658 4.37391 8.38563 5.05219 7.88554 5.55229C7.38544 6.05238 6.70716 6.33333 5.99992 6.33333C5.29267 6.33333 4.6144 6.05238 4.1143 5.55229C3.6142 5.05219 3.33325 4.37391 3.33325 3.66667C3.33325 2.95942 3.6142 2.28115 4.1143 1.78105C4.6144 1.28095 5.29267 1 5.99992 1C6.70716 1 7.38544 1.28095 7.88554 1.78105C8.38563 2.28115 8.66658 2.95942 8.66658 3.66667V3.66667ZM5.99992 8.33333C4.76224 8.33333 3.57526 8.825 2.70009 9.70017C1.82492 10.5753 1.33325 11.7623 1.33325 13H10.6666C10.6666 11.7623 10.1749 10.5753 9.29975 9.70017C8.42458 8.825 7.2376 8.33333 5.99992 8.33333V8.33333Z" stroke="#94A9C9" stroke-width="1.33333" stroke-linecap="round" stroke-linejoin="round"/>
</svg>
